<svg width="364" height="291" viewBox="0 0 364 291" fill="none" xmlns="http://www.w3.org/2000/svg">
<path d="M257.474 0.704102H11.0368C5.33073 0.704102 0.705078 5.32199 0.705078 11.0184V192.62C0.705078 198.316 5.33073 202.934 11.0368 202.934H257.474C263.18 202.934 267.805 198.316 267.805 192.62V11.0184C267.805 5.32199 263.18 0.704102 257.474 0.704102Z" fill="white"/>
<path d="M257.478 203.643H11.0364C4.95083 203.643 -0.000488281 198.7 -0.000488281 192.625V11.0184C-0.000488281 4.94301 4.95083 0 11.0364 0H257.478C263.564 0 268.515 4.94301 268.515 11.0184V192.625C268.515 198.7 263.564 203.643 257.478 203.643ZM11.0364 1.41299C5.73003 1.41299 1.40995 5.72089 1.40995 11.0184V192.625C1.40995 197.922 5.7251 202.23 11.0315 202.23H257.473C262.78 202.23 267.095 197.922 267.095 192.625V11.0184C267.095 5.72089 262.78 1.41299 257.473 1.41299H11.0364Z" fill="black"/>
<path d="M267.805 11.0184V27.3097H0.709961V11.0184C0.709961 5.32217 5.33087 0.704102 11.0417 0.704102H257.474C263.179 0.704102 267.805 5.32217 267.805 11.0184Z" fill="#737FF6"/>
<path d="M267.805 28.0186H0.70473C0.315134 28.0186 -0.000488281 27.7035 -0.000488281 27.3145V11.0184C-0.000488281 4.94301 4.95083 0 11.0414 0H257.473C263.559 0 268.51 4.94301 268.51 11.0184V27.3096C268.51 27.6986 268.195 28.0137 267.805 28.0137V28.0186ZM1.41488 26.6056H267.1V11.0184C267.1 5.72089 262.78 1.40807 257.473 1.40807H11.0414C5.73003 1.40807 1.41488 5.72089 1.41488 11.0184V26.6056Z" fill="black"/>
<path d="M254.347 15.0359C254.347 17.6452 252.226 19.7622 249.623 19.7622C247.019 19.7622 244.888 17.6452 244.888 15.0359C244.888 12.4265 247.009 10.3193 249.623 10.3193C252.236 10.3193 254.347 12.4364 254.347 15.0359Z" fill="black"/>
<path d="M237.889 15.0359C237.889 17.6452 235.769 19.7622 233.165 19.7622C230.561 19.7622 228.431 17.6452 228.431 15.0359C228.431 12.4265 230.551 10.3193 233.165 10.3193C235.779 10.3193 237.889 12.4364 237.889 15.0359Z" fill="black"/>
<path d="M221.429 15.0359C221.429 17.6452 219.308 19.7622 216.704 19.7622C214.1 19.7622 211.97 17.6452 211.97 15.0359C211.97 12.4265 214.09 10.3193 216.704 10.3193C219.318 10.3193 221.429 12.4364 221.429 15.0359Z" fill="black"/>
<path d="M159.695 152.51L197.12 193.531L218.494 188.785L226.547 225.478L191.429 231.854C183.835 233.223 176.127 230.155 171.565 223.947L135.88 168.796" fill="white"/>
<path d="M187.898 232.872C181.314 232.872 174.953 229.746 170.997 224.36L135.288 169.174C135.076 168.849 135.169 168.411 135.5 168.2C135.825 167.988 136.264 168.081 136.476 168.411L172.161 223.562C176.506 229.475 184.032 232.473 191.311 231.159L225.704 224.916L217.956 189.626L197.273 194.219C197.026 194.273 196.77 194.195 196.597 194.008L159.166 152.987C158.905 152.701 158.925 152.253 159.211 151.992C159.497 151.731 159.946 151.751 160.207 152.036L197.362 192.752L218.336 188.095C218.518 188.055 218.711 188.09 218.868 188.188C219.026 188.287 219.14 188.449 219.179 188.631L227.232 225.325C227.272 225.512 227.232 225.709 227.129 225.866C227.02 226.024 226.858 226.137 226.665 226.167L191.547 232.542C190.329 232.764 189.101 232.867 187.883 232.867L187.898 232.872Z" fill="black"/>
<path d="M321.17 289.59V249.002L349.542 220.269L328.908 188.863C325.929 184.329 320.864 181.602 315.435 181.602H247.591C246.757 181.602 245.924 181.675 245.105 181.823L209.095 188.356L214.732 231.371L243.586 225.257L218.884 289.59H321.18H321.17Z" fill="black"/>
<path d="M321.17 290.293H218.874C218.642 290.293 218.425 290.18 218.292 289.988C218.158 289.796 218.129 289.555 218.213 289.338L242.452 226.217L214.869 232.065C214.677 232.105 214.475 232.065 214.317 231.952C214.154 231.839 214.05 231.662 214.026 231.47L208.389 188.455C208.34 188.081 208.591 187.736 208.961 187.672L244.972 181.139C245.83 180.981 246.707 180.902 247.58 180.902H315.424C321.11 180.902 326.368 183.738 329.484 188.484L350.118 219.89C350.301 220.166 350.266 220.535 350.029 220.771L321.86 249.297V289.594C321.86 289.983 321.544 290.298 321.155 290.298L321.17 290.293ZM219.904 288.885H320.464V249.002C320.464 248.815 320.538 248.637 320.667 248.504L348.639 220.181L328.316 189.247C325.46 184.9 320.642 182.305 315.434 182.305H247.59C246.801 182.305 246.007 182.374 245.233 182.517L209.883 188.932L215.333 230.524L243.438 224.567C243.689 224.513 243.956 224.602 244.123 224.799C244.291 224.996 244.34 225.266 244.247 225.508L219.909 288.885H219.904Z" fill="black"/>
<path d="M296.62 170.918C294.766 173.739 291.077 174.66 288.128 173.109V181.464C288.128 181.464 281.529 192.344 272.953 189.848C266.976 188.11 266.868 183.083 267.548 179.731C267.839 178.298 268.278 177.18 268.466 176.737C268.51 176.629 268.535 176.565 268.549 176.545C249.415 167.196 267.257 147.06 267.257 147.06C282.664 145.331 299.017 152.086 289.267 161.135C291.047 160.604 293.045 160.825 294.726 161.923C297.73 163.887 298.583 167.905 296.615 170.913L296.62 170.918Z" fill="white"/>
<path d="M275.568 190.931C274.66 190.931 273.723 190.803 272.757 190.523C267.81 189.085 265.719 185.205 266.858 179.588C267.09 178.456 267.411 177.5 267.648 176.88C262.908 174.414 260.087 171.036 259.249 166.837C257.355 157.3 266.346 147.025 266.725 146.592C266.839 146.459 267.002 146.38 267.174 146.361C278.665 145.071 289.988 148.315 292.414 153.593C293.114 155.109 293.361 157.399 291.152 160.156C292.542 160.156 293.918 160.554 295.112 161.332C298.44 163.508 299.377 167.979 297.203 171.297C295.358 174.103 291.906 175.231 288.829 174.172V181.459C288.829 181.587 288.794 181.715 288.725 181.823C288.474 182.237 283.108 190.926 275.563 190.926L275.568 190.931ZM269.147 176.929C269.147 176.929 269.137 176.964 269.122 177.003C268.905 177.52 268.511 178.564 268.244 179.873C267.554 183.266 267.845 187.628 273.151 189.174C280.568 191.33 286.575 182.571 287.423 181.262V173.109C287.423 172.863 287.551 172.631 287.764 172.503C287.976 172.375 288.237 172.37 288.459 172.484C291.122 173.887 294.377 173.05 296.029 170.529C297.775 167.861 297.02 164.267 294.342 162.519C292.902 161.578 291.127 161.322 289.47 161.82C289.154 161.913 288.819 161.78 288.656 161.495C288.493 161.209 288.548 160.85 288.789 160.628C291.26 158.334 292.049 156.168 291.137 154.189C289.001 149.541 278.27 146.612 267.613 147.739C266.375 149.216 259.012 158.428 260.635 166.576C261.414 170.49 264.181 173.636 268.861 175.92C269.043 176.009 269.181 176.171 269.231 176.368C269.285 176.565 269.25 176.772 269.137 176.944C269.137 176.939 269.147 176.934 269.147 176.934V176.929Z" fill="black"/>
<path d="M256.211 138.276C256.211 138.276 251.452 150.048 267.386 149.536C283.32 149.019 287.665 152.115 287.665 152.115C287.665 152.115 283.424 163.065 290.664 161.514C297.903 159.963 297.287 167.713 297.287 167.713C297.287 167.713 308.255 146.129 296.147 146.542C296.147 146.542 288.114 135.829 281.215 134.554C274.315 133.279 280.79 141.53 280.79 141.53C280.79 141.53 277.383 132.841 272.101 134.421C266.819 136.001 272.865 141.614 272.865 141.614C272.865 141.614 268.264 133.136 262.899 134.229C257.533 135.322 264.26 141.358 264.26 141.358L256.216 138.276H256.211Z" fill="black"/>
<path d="M297.282 168.411C297.218 168.411 297.154 168.401 297.089 168.386C296.764 168.298 296.552 167.988 296.577 167.653C296.577 167.618 296.803 164.418 295.028 162.867C294.071 162.03 292.651 161.809 290.807 162.203C288.942 162.601 287.557 162.281 286.679 161.257C284.77 159.022 286.186 154.192 286.787 152.445C285.318 151.746 280.075 149.83 267.401 150.239C261.824 150.421 258.036 149.141 256.142 146.438C253.637 142.859 255.472 138.206 255.551 138.014C255.694 137.66 256.098 137.483 256.458 137.621L261.681 139.619C260.704 138.349 259.831 136.769 260.186 135.464C260.458 134.475 261.316 133.825 262.746 133.534C265.222 133.032 267.505 134.297 269.32 135.942C269.606 134.903 270.469 134.164 271.889 133.741C274.069 133.091 275.928 133.918 277.412 135.233C277.462 135.06 277.531 134.893 277.624 134.74C278.192 133.805 279.444 133.51 281.338 133.859C287.862 135.065 295.112 144.055 296.488 145.828C298.811 145.828 300.497 146.625 301.503 148.201C305.074 153.789 298.204 167.451 297.913 168.032C297.79 168.273 297.543 168.416 297.282 168.416V168.411ZM292.454 160.598C293.869 160.598 295.043 161.001 295.965 161.809C296.976 162.695 297.489 163.911 297.75 165.019C299.536 160.923 302.647 152.602 300.315 148.954C299.536 147.733 298.174 147.172 296.172 147.241C295.945 147.241 295.723 147.142 295.585 146.96C295.506 146.857 287.636 136.454 281.086 135.243C279.883 135.021 279.06 135.105 278.838 135.469C278.665 135.755 278.704 136.237 278.887 136.813C280.475 138.842 281.372 141.082 281.446 141.269C281.575 141.594 281.446 141.963 281.141 142.14C280.835 142.312 280.45 142.239 280.233 141.963C279.809 141.421 278.315 139.442 277.654 137.542C276.298 135.853 274.453 134.45 272.298 135.095C271.351 135.376 270.804 135.809 270.676 136.37C270.602 136.68 270.641 137.035 270.755 137.404C272.382 139.265 273.398 141.111 273.487 141.274C273.65 141.579 273.571 141.953 273.299 142.165C273.028 142.376 272.639 142.357 272.387 142.125C272.106 141.864 270.242 140.087 269.517 138.138C267.811 136.227 265.478 134.415 263.042 134.913C262.179 135.09 261.681 135.395 261.562 135.828C261.237 137.02 263.224 139.467 264.733 140.826C264.985 141.052 265.039 141.426 264.861 141.717C264.684 142.007 264.324 142.13 264.008 142.007L256.66 139.191C256.3 140.476 255.748 143.386 257.321 145.626C258.924 147.905 262.297 148.984 267.372 148.816C283.355 148.299 287.897 151.396 288.079 151.529C288.341 151.716 288.444 152.056 288.326 152.356C287.685 154.01 286.339 158.663 287.764 160.327C288.282 160.928 289.209 161.09 290.521 160.809C291.211 160.662 291.857 160.588 292.459 160.588L292.454 160.598Z" fill="black"/>
<path d="M272.052 178.697C271.973 178.697 271.899 178.683 271.82 178.658C270.538 178.215 269.33 177.718 268.24 177.186C267.89 177.014 267.747 176.59 267.914 176.241C268.087 175.891 268.506 175.748 268.861 175.916C269.902 176.423 271.056 176.9 272.284 177.324C272.654 177.452 272.846 177.85 272.718 178.22C272.619 178.51 272.343 178.692 272.052 178.692V178.697Z" fill="black"/>
<path d="M285.722 163.808C287.689 160.8 291.719 159.958 294.732 161.922C297.745 163.887 298.588 167.909 296.62 170.917C294.658 173.916 290.624 174.767 287.61 172.803" fill="white"/>
<path d="M291.162 174.561C289.81 174.561 288.444 174.182 287.226 173.389C286.901 173.177 286.807 172.739 287.019 172.414C287.231 172.089 287.67 171.996 287.996 172.207C290.673 173.955 294.278 173.197 296.024 170.524C297.775 167.85 297.015 164.251 294.338 162.509C291.66 160.761 288.06 161.519 286.309 164.192C286.097 164.517 285.658 164.611 285.332 164.399C285.007 164.187 284.913 163.749 285.125 163.424C287.3 160.101 291.778 159.161 295.112 161.332C298.441 163.503 299.383 167.973 297.208 171.302C295.827 173.414 293.514 174.566 291.157 174.566L291.162 174.561Z" fill="black"/>
<path d="M288.853 165.852C289.686 164.577 291.403 164.217 292.68 165.049C293.957 165.881 294.317 167.595 293.484 168.87C292.65 170.145 290.934 170.504 289.657 169.672" fill="white"/>
<path d="M291.166 170.824C290.515 170.824 289.859 170.642 289.273 170.263C288.947 170.051 288.853 169.613 289.065 169.288C289.277 168.963 289.716 168.87 290.042 169.081C290.994 169.702 292.271 169.431 292.892 168.486C293.514 167.536 293.242 166.26 292.296 165.64C291.837 165.34 291.285 165.236 290.747 165.35C290.21 165.463 289.746 165.778 289.445 166.236C289.233 166.561 288.794 166.654 288.469 166.443C288.143 166.231 288.049 165.793 288.262 165.468C288.77 164.69 289.549 164.158 290.456 163.971C291.364 163.779 292.291 163.956 293.07 164.463C294.673 165.507 295.126 167.659 294.081 169.259C293.415 170.273 292.301 170.829 291.166 170.829V170.824Z" fill="black"/>
<path d="M275.272 243.975C275.272 243.975 264.511 232.725 257.789 236.743C251.067 240.76 266.779 253.615 266.779 253.615C266.779 253.615 270.049 264.653 277.274 258.351" fill="white"/>
<path d="M273.047 260.999C272.599 260.999 272.155 260.935 271.721 260.812C268.259 259.807 266.528 255.101 266.173 254.027C264.733 252.826 255.032 244.53 255.427 239.243C255.525 237.918 256.201 236.875 257.429 236.141C264.555 231.887 275.331 243.014 275.784 243.492C276.056 243.772 276.046 244.22 275.76 244.486C275.479 244.757 275.03 244.747 274.764 244.461C274.66 244.353 264.318 233.67 258.154 237.347C257.33 237.84 256.896 238.494 256.832 239.341C256.536 243.378 264.235 250.616 267.228 253.067C267.337 253.156 267.415 253.279 267.46 253.412C267.475 253.461 269.028 258.562 272.115 259.453C273.521 259.857 275.099 259.305 276.815 257.813C277.111 257.557 277.555 257.587 277.811 257.882C278.068 258.178 278.038 258.621 277.742 258.877C276.125 260.29 274.551 260.999 273.047 260.999Z" fill="black"/>
<path d="M351.859 256.648L280.316 272.082C271.725 277.882 261.956 278.315 261.275 278.335C256.477 278.478 254.544 275.268 257.162 272.23C256.812 272.323 256.457 272.422 256.097 272.52C252.739 273.584 250.687 267.508 253.582 265.027C253.548 265.027 253.518 265.032 253.483 265.032C249.361 265.204 248.818 257.613 253.064 256.101C248.606 256.441 235.754 256.894 237.431 250.69C239.438 243.207 274.788 244 274.788 244L315.326 232.966L311.79 226.492L346.222 215.203L360.371 236.89C365.066 244.645 360.726 254.703 351.859 256.638V256.648Z" fill="white"/>
<path d="M260.97 279.044C258.386 279.044 256.398 278.089 255.619 276.459C255.161 275.494 255.17 274.411 255.629 273.338C254.307 273.466 253.055 272.732 252.256 271.304C251.339 269.66 251.181 267.302 252.221 265.569C250.89 265.125 249.884 263.875 249.544 262.117C249.213 260.409 249.568 258.381 250.722 256.948C245.973 257.13 239.67 256.805 237.427 254.102C236.603 253.113 236.376 251.901 236.751 250.513C238.827 242.788 270.567 243.212 274.7 243.3L314.276 232.528L311.169 226.842C311.07 226.66 311.055 226.438 311.134 226.246C311.213 226.049 311.371 225.901 311.568 225.837L346.001 214.548C346.306 214.45 346.637 214.563 346.814 214.834L360.963 236.521C363.33 240.43 363.651 245.058 361.851 249.233C360.051 253.413 356.461 256.367 352.007 257.342L280.598 272.747C271.75 278.665 261.72 279.029 261.296 279.044C261.187 279.044 261.079 279.049 260.97 279.049V279.044ZM257.163 271.526C257.4 271.526 257.631 271.649 257.76 271.856C257.922 272.117 257.898 272.456 257.695 272.688C256.749 273.786 256.458 274.933 256.892 275.848C257.454 277.03 259.091 277.69 261.251 277.626C261.66 277.611 271.381 277.256 279.922 271.496C279.996 271.447 280.08 271.413 280.169 271.393L351.711 255.958C355.716 255.087 358.941 252.428 360.559 248.672C362.176 244.92 361.89 240.76 359.77 237.264L345.927 216.05L312.816 226.906L315.947 232.636C316.051 232.824 316.061 233.05 315.977 233.252C315.893 233.449 315.721 233.601 315.513 233.656L274.976 244.689C274.912 244.708 274.843 244.713 274.774 244.713C265.098 244.497 239.646 245.181 238.117 250.882C237.865 251.818 237.994 252.576 238.516 253.206C240.134 255.156 245.554 255.978 253.02 255.407C253.37 255.382 253.691 255.619 253.765 255.963C253.839 256.308 253.647 256.657 253.311 256.775C251.27 257.504 250.564 259.931 250.934 261.851C251.053 262.452 251.585 264.407 253.464 264.338C253.78 264.303 254.135 264.471 254.253 264.791C254.357 265.066 254.273 265.377 254.051 265.569C252.641 266.775 252.665 269.133 253.494 270.62C253.775 271.127 254.579 272.269 255.89 271.851L256.206 271.762C256.472 271.688 256.734 271.619 256.99 271.55C257.049 271.536 257.113 271.526 257.173 271.526H257.163Z" fill="black"/>
<path d="M267.593 166.999C267.109 166.999 266.37 166.969 265.832 166.452C265.383 166.019 265.206 165.35 265.364 164.7C265.487 164.202 265.793 163.745 266.251 163.375C266.749 162.972 267.307 162.755 267.844 162.543C268.13 162.43 268.402 162.327 268.648 162.194C270.063 161.455 270.887 159.663 270.517 158.107C270.428 157.728 270.66 157.349 271.04 157.261C271.42 157.172 271.799 157.403 271.888 157.782C272.411 159.968 271.296 162.405 269.299 163.444C268.983 163.607 268.663 163.735 268.357 163.853C267.899 164.03 267.465 164.202 267.134 164.468C266.922 164.641 266.774 164.842 266.73 165.034C266.69 165.187 266.73 165.359 266.809 165.433C266.971 165.586 267.415 165.586 267.677 165.586L269.664 165.576C270.054 165.576 270.369 165.891 270.369 166.28C270.369 166.669 270.054 166.984 269.664 166.989L267.677 166.999C267.647 166.999 267.617 166.999 267.588 166.999H267.593Z" fill="black"/>
<path d="M277.861 160.052C277.861 160.864 277.205 161.519 276.391 161.519C275.577 161.519 274.921 160.864 274.921 160.052C274.921 159.239 275.577 158.584 276.391 158.584C277.205 158.584 277.861 159.239 277.861 160.052Z" fill="black"/>
<path d="M281.071 158.978C280.864 158.978 280.657 158.885 280.514 158.707C279.73 157.713 279.064 156.915 278.176 156.418C277.417 155.995 276.312 155.817 275.568 156.374C275.257 156.605 274.813 156.541 274.581 156.231C274.349 155.921 274.414 155.478 274.724 155.246C275.829 154.424 277.456 154.399 278.867 155.192C280.07 155.862 280.928 156.96 281.623 157.841C281.865 158.146 281.811 158.589 281.505 158.83C281.377 158.934 281.224 158.983 281.071 158.983V158.978Z" fill="black"/>
<path d="M266.528 157.34C266.528 158.152 265.872 158.807 265.058 158.807C264.245 158.807 263.589 158.152 263.589 157.34C263.589 156.527 264.245 155.873 265.058 155.873C265.872 155.873 266.528 156.527 266.528 157.34Z" fill="black"/>
<path d="M269.738 156.271C269.531 156.271 269.323 156.177 269.18 156C268.396 155.005 267.731 154.208 266.843 153.711C266.083 153.287 264.979 153.11 264.234 153.666C263.923 153.898 263.479 153.834 263.248 153.523C263.016 153.213 263.08 152.77 263.391 152.539C264.495 151.717 266.123 151.692 267.533 152.485C268.737 153.154 269.595 154.252 270.29 155.133C270.532 155.439 270.477 155.882 270.172 156.123C270.043 156.226 269.891 156.276 269.738 156.276V156.271Z" fill="black"/>
<path d="M270.083 172.371C269.112 172.371 268.219 172.021 267.494 171.356C267.208 171.091 267.188 170.648 267.455 170.362C267.721 170.076 268.165 170.057 268.451 170.323C268.939 170.771 269.546 170.992 270.202 170.963C271.074 170.923 271.957 170.465 272.692 169.663C272.953 169.377 273.402 169.358 273.688 169.619C273.974 169.879 273.994 170.328 273.733 170.613C272.746 171.691 271.513 172.317 270.261 172.371C270.202 172.371 270.142 172.371 270.083 172.371Z" fill="black"/>
<path d="M270.907 177.57C270.907 177.57 268.57 178.23 267.549 179.731C267.84 178.298 268.279 177.181 268.466 176.738L270.907 177.565V177.57Z" fill="black"/>
<path d="M267.548 180.44C267.455 180.44 267.366 180.42 267.272 180.386C266.962 180.258 266.789 179.923 266.853 179.598C267.144 178.175 267.578 177.028 267.81 176.476C267.953 176.137 268.338 175.964 268.688 176.083L271.129 176.91C271.42 177.008 271.617 177.289 271.607 177.594C271.597 177.904 271.39 178.17 271.094 178.254C271.075 178.259 268.989 178.864 268.125 180.134C267.992 180.331 267.77 180.445 267.539 180.445L267.548 180.44ZM268.875 177.628C268.875 177.628 268.86 177.673 268.85 177.697C268.88 177.683 268.91 177.663 268.934 177.648L268.875 177.628Z" fill="black"/>
<path d="M304.827 289.589H235.829L201.973 222.632H210.608C211.269 222.632 211.876 223.006 212.172 223.597L240.77 280.614H298.484C299.101 280.614 299.673 280.939 299.989 281.466L304.827 289.589Z" fill="#FDA500"/>
<path d="M304.827 290.298H235.829C235.563 290.298 235.321 290.151 235.198 289.909L201.342 222.952C201.234 222.736 201.244 222.475 201.372 222.263C201.5 222.056 201.727 221.928 201.973 221.928H210.609C211.546 221.928 212.384 222.445 212.803 223.282L241.209 279.91H298.485C299.348 279.91 300.152 280.368 300.595 281.106L305.433 289.23C305.562 289.447 305.567 289.717 305.438 289.939C305.31 290.16 305.078 290.293 304.827 290.293V290.298ZM236.268 288.89H303.589L299.387 281.83C299.2 281.515 298.86 281.323 298.49 281.323H240.775C240.509 281.323 240.262 281.17 240.144 280.934L211.546 223.917C211.368 223.563 211.013 223.341 210.614 223.341H203.127L236.268 288.89Z" fill="black"/>
<path d="M201.973 222.637L235.828 289.589H137.112L104.539 225.167C103.952 224.005 104.796 222.637 106.098 222.637H201.973Z" fill="white"/>
<path d="M235.828 290.293H137.113C136.846 290.293 136.605 290.146 136.481 289.904L103.908 225.483C103.524 224.72 103.558 223.824 104.007 223.095C104.456 222.366 105.24 221.928 106.098 221.928H201.973C202.239 221.928 202.481 222.076 202.604 222.317L236.46 289.269C236.568 289.486 236.558 289.747 236.43 289.959C236.302 290.165 236.075 290.293 235.828 290.293ZM137.547 288.885H234.684L201.544 223.341H106.103C105.733 223.341 105.407 223.523 105.215 223.838C105.023 224.154 105.008 224.523 105.171 224.853L137.547 288.885Z" fill="black"/>
<path d="M60.2556 81.8625C67.8455 77.1791 70.1953 67.24 65.504 59.6629C60.8128 52.0858 50.8569 49.7399 43.2671 54.4233C35.6772 59.1067 33.3274 69.0458 38.0187 76.6229C42.7099 84.2 52.6658 86.5459 60.2556 81.8625Z" fill="#F34B85"/>
<path d="M51.7615 84.981C42.4655 84.981 34.9004 77.4287 34.9004 68.1482C34.9004 58.8678 42.4655 51.3154 51.7615 51.3154C61.0576 51.3154 68.6226 58.8678 68.6226 68.1482C68.6226 77.4287 61.0576 84.981 51.7615 84.981ZM51.7615 52.7235C43.2397 52.7235 36.3108 59.6407 36.3108 68.1482C36.3108 76.6557 43.2397 83.573 51.7615 83.573C60.2833 83.573 67.2122 76.6557 67.2122 68.1482C67.2122 59.6407 60.2833 52.7235 51.7615 52.7235Z" fill="black"/>
<path d="M111.429 187.879C117.7 184.009 119.642 175.796 115.766 169.535C111.889 163.274 103.662 161.336 97.3909 165.206C91.1193 169.076 89.1776 177.288 93.0541 183.55C96.9305 189.811 105.157 191.749 111.429 187.879Z" fill="#D2D2D2"/>
<path d="M104.407 190.581C96.6591 190.581 90.3516 184.289 90.3516 176.55C90.3516 168.811 96.6541 162.519 104.407 162.519C112.159 162.519 118.462 168.811 118.462 176.55C118.462 184.289 112.159 190.581 104.407 190.581ZM104.407 163.932C97.4383 163.932 91.7669 169.593 91.7669 176.55C91.7669 183.507 97.4383 189.168 104.407 189.168C111.375 189.168 117.046 183.507 117.046 176.55C117.046 169.593 111.375 163.932 104.407 163.932Z" fill="black"/>
<path d="M67.9175 68.1479H189.235C190.606 68.1479 191.715 69.2557 191.715 70.6244V128.828" fill="white"/>
<path d="M191.715 129.538C191.326 129.538 191.01 129.223 191.01 128.834V70.6302C191.01 69.6504 190.211 68.8578 189.235 68.8578H67.9176C67.528 68.8578 67.2124 68.5427 67.2124 68.1537C67.2124 67.7648 67.528 67.4497 67.9176 67.4497H189.235C190.991 67.4497 192.426 68.8775 192.426 70.6351V128.838C192.426 129.227 192.11 129.543 191.72 129.543L191.715 129.538Z" fill="black"/>
<path d="M104.407 118.362C104.017 118.362 103.702 118.047 103.702 117.658V68.1489C103.702 67.7599 104.017 67.4448 104.407 67.4448C104.796 67.4448 105.112 67.7599 105.112 68.1489V117.658C105.112 118.047 104.796 118.362 104.407 118.362Z" fill="black"/>
<path d="M121.524 108.545H87.2889C86.0143 108.545 84.981 109.577 84.981 110.849V126.53C84.981 127.802 86.0143 128.834 87.2889 128.834H121.524C122.799 128.834 123.832 127.802 123.832 126.53V110.849C123.832 109.577 122.799 108.545 121.524 108.545Z" fill="white"/>
<path d="M121.524 129.538H87.2842C85.6223 129.538 84.271 128.189 84.271 126.53V110.849C84.271 109.19 85.6223 107.841 87.2842 107.841H121.524C123.186 107.841 124.537 109.19 124.537 110.849V126.53C124.537 128.189 123.186 129.538 121.524 129.538ZM87.2842 109.249C86.4014 109.249 85.6814 109.968 85.6814 110.849V126.53C85.6814 127.411 86.4014 128.13 87.2842 128.13H121.524C122.407 128.13 123.127 127.411 123.127 126.53V110.849C123.127 109.968 122.407 109.249 121.524 109.249H87.2842Z" fill="black"/>
<path d="M69.7668 156.738H35.5316C34.257 156.738 33.2236 157.77 33.2236 159.042V174.723C33.2236 175.996 34.257 177.027 35.5316 177.027H69.7668C71.0414 177.027 72.0747 175.996 72.0747 174.723V159.042C72.0747 157.77 71.0414 156.738 69.7668 156.738Z" fill="white"/>
<path d="M69.7669 177.731H35.5269C33.8649 177.731 32.5137 176.382 32.5137 174.723V159.042C32.5137 157.383 33.8649 156.034 35.5269 156.034H69.7669C71.4289 156.034 72.7801 157.383 72.7801 159.042V174.723C72.7801 176.382 71.4289 177.731 69.7669 177.731ZM35.5269 157.442C34.6441 157.442 33.9241 158.161 33.9241 159.042V174.723C33.9241 175.604 34.6441 176.323 35.5269 176.323H69.7669C70.6497 176.323 71.3697 175.604 71.3697 174.723V159.042C71.3697 158.161 70.6497 157.442 69.7669 157.442H35.5269Z" fill="black"/>
<path d="M208.833 108.545H174.598C173.323 108.545 172.29 109.577 172.29 110.849V126.53C172.29 127.802 173.323 128.834 174.598 128.834H208.833C210.108 128.834 211.141 127.802 211.141 126.53V110.849C211.141 109.577 210.108 108.545 208.833 108.545Z" fill="white"/>
<path d="M208.833 129.538H174.593C172.931 129.538 171.58 128.189 171.58 126.53V110.849C171.58 109.19 172.931 107.841 174.593 107.841H208.833C210.495 107.841 211.846 109.19 211.846 110.849V126.53C211.846 128.189 210.495 129.538 208.833 129.538ZM174.593 109.249C173.71 109.249 172.99 109.968 172.99 110.849V126.53C172.99 127.411 173.71 128.13 174.593 128.13H208.833C209.716 128.13 210.436 127.411 210.436 126.53V110.849C210.436 109.968 209.716 109.249 208.833 109.249H174.593Z" fill="black"/>
<path d="M208.833 58.0068H174.598C173.323 58.0068 172.29 59.0384 172.29 60.3109V75.9917C172.29 77.2642 173.323 78.2958 174.598 78.2958H208.833C210.108 78.2958 211.141 77.2642 211.141 75.9917V60.3109C211.141 59.0384 210.108 58.0068 208.833 58.0068Z" fill="white"/>
<path d="M208.833 78.9998H174.593C172.931 78.9998 171.58 77.6508 171.58 75.9916V60.3109C171.58 58.6517 172.931 57.3027 174.593 57.3027H208.833C210.495 57.3027 211.846 58.6517 211.846 60.3109V75.9916C211.846 77.6508 210.495 78.9998 208.833 78.9998ZM174.593 58.7108C173.71 58.7108 172.99 59.4296 172.99 60.3109V75.9916C172.99 76.8729 173.71 77.5917 174.593 77.5917H208.833C209.716 77.5917 210.436 76.8729 210.436 75.9916V60.3109C210.436 59.4296 209.716 58.7108 208.833 58.7108H174.593Z" fill="black"/>
<path d="M84.9809 118.686H55.1349C53.7639 118.686 52.6543 119.794 52.6543 121.162V156.738" fill="white"/>
<path d="M52.6491 157.447C52.2595 157.447 51.9438 157.132 51.9438 156.743V121.167C51.9438 119.41 53.374 117.982 55.1346 117.982H84.9806C85.3702 117.982 85.6858 118.297 85.6858 118.686C85.6858 119.075 85.3702 119.39 84.9806 119.39H55.1346C54.1532 119.39 53.3592 120.188 53.3592 121.162V156.738C53.3592 157.127 53.0436 157.442 52.654 157.442L52.6491 157.447Z" fill="black"/>
<path d="M52.6489 142.854H101.925C103.296 142.854 104.406 143.962 104.406 145.331V163.222" fill="white"/>
<path d="M104.406 163.927C104.017 163.927 103.701 163.612 103.701 163.223V145.331C103.701 144.352 102.902 143.559 101.926 143.559H52.6491C52.2595 143.559 51.9438 143.244 51.9438 142.855C51.9438 142.466 52.2595 142.151 52.6491 142.151H101.926C103.681 142.151 105.116 143.579 105.116 145.336V163.228C105.116 163.617 104.801 163.932 104.411 163.932L104.406 163.927Z" fill="black"/>
<path d="M337.415 40.4541H236.845C234.516 40.4541 232.628 42.3387 232.628 44.6635V115.988C232.628 118.312 234.516 120.197 236.845 120.197H337.415C339.744 120.197 341.631 118.312 341.631 115.988V44.6635C341.631 42.3387 339.744 40.4541 337.415 40.4541Z" fill="white"/>
<path d="M337.415 120.907H236.845C234.132 120.907 231.923 118.701 231.923 115.993V44.6693C231.923 41.9615 234.132 39.7559 236.845 39.7559H337.415C340.127 39.7559 342.336 41.9615 342.336 44.6693V115.993C342.336 118.701 340.127 120.907 337.415 120.907ZM236.845 41.1639C234.906 41.1639 233.333 42.7345 233.333 44.6693V115.993C233.333 117.928 234.906 119.499 236.845 119.499H337.415C339.353 119.499 340.926 117.928 340.926 115.993V44.6693C340.926 42.7345 339.353 41.1639 337.415 41.1639H236.845Z" fill="black"/>
<path d="M267.722 49.1883H243.512C243.123 49.1883 242.807 48.8732 242.807 48.4843C242.807 48.0954 243.123 47.7803 243.512 47.7803H267.722C268.111 47.7803 268.427 48.0954 268.427 48.4843C268.427 48.8732 268.111 49.1883 267.722 49.1883Z" fill="black"/>
<path d="M267.722 55.0326H243.512C243.123 55.0326 242.807 54.7175 242.807 54.3285C242.807 53.9396 243.123 53.6245 243.512 53.6245H267.722C268.111 53.6245 268.427 53.9396 268.427 54.3285C268.427 54.7175 268.111 55.0326 267.722 55.0326Z" fill="black"/>
<path d="M254.954 60.8719H243.512C243.123 60.8719 242.807 60.5568 242.807 60.1679C242.807 59.779 243.123 59.4639 243.512 59.4639H254.954C255.343 59.4639 255.659 59.779 255.659 60.1679C255.659 60.5568 255.343 60.8719 254.954 60.8719Z" fill="black"/>
<path d="M308.229 80.3235V80.3333H297.597V80.3235C297.597 73.7508 292.261 68.4238 285.667 68.414H285.657V57.7993H285.667C298.139 57.819 308.229 67.8921 308.229 80.3235Z" fill="#FDA500"/>
<path d="M308.229 81.0377H297.597C297.207 81.0377 296.892 80.7226 296.892 80.3337C296.892 74.1549 291.856 69.1282 285.667 69.1233C285.278 69.1233 284.952 68.8082 284.952 68.4193V57.8046C284.952 57.4157 285.268 57.1006 285.657 57.1006C298.499 57.1203 308.935 67.538 308.935 80.3288V80.3386C308.935 80.7276 308.619 81.0427 308.229 81.0427V81.0377ZM298.282 79.6297H307.514C307.149 68.1682 297.863 58.8976 286.368 58.5185V67.7349C292.784 68.0993 297.937 73.2392 298.287 79.6297H298.282Z" fill="black"/>
<path d="M308.23 80.3333C308.23 92.7745 298.12 102.857 285.658 102.857C273.196 102.857 263.096 92.7745 263.096 80.3235C263.096 67.8724 273.206 57.7993 285.658 57.7993H285.668V68.414H285.658C279.075 68.414 273.729 73.7459 273.729 80.3235C273.729 86.901 279.075 92.2428 285.658 92.2428C292.242 92.2428 297.588 86.9158 297.598 80.3333H308.23Z" fill="white"/>
<path d="M285.652 103.562C272.82 103.562 262.385 93.1398 262.385 80.3244C262.385 67.509 272.825 57.0962 285.652 57.0962C286.042 57.0962 286.367 57.4113 286.367 57.8002V68.4149C286.367 68.8038 286.052 69.1189 285.662 69.1189C279.463 69.1189 274.433 74.1456 274.433 80.3244C274.433 86.5031 279.468 91.5348 285.657 91.5348C291.846 91.5348 296.881 86.5081 296.886 80.3293C296.886 79.9404 297.202 79.6253 297.591 79.6253H308.224C308.614 79.6253 308.929 79.9404 308.929 80.3293C308.929 93.1398 298.484 103.557 285.652 103.557V103.562ZM284.957 58.5141C273.219 58.8883 263.795 68.5281 263.795 80.3244C263.795 92.1206 273.599 102.154 285.652 102.154C297.705 102.154 307.134 92.7459 307.509 81.0383H298.277C297.902 87.665 292.379 92.9478 285.652 92.9478C278.925 92.9478 273.017 87.2859 273.017 80.3244C273.017 73.3628 278.309 68.09 284.957 67.7306V58.5141Z" fill="black"/>
<path d="M266.621 101.421H248.488C248.098 101.421 247.783 101.106 247.783 100.717C247.783 100.328 248.098 100.013 248.488 100.013H266.33L274.798 91.5593C275.074 91.2836 275.523 91.2836 275.794 91.5593C276.07 91.835 276.07 92.283 275.794 92.5538L267.12 101.214C266.986 101.347 266.809 101.421 266.621 101.421Z" fill="black"/>
<path d="M298.958 67.1644C298.775 67.1644 298.598 67.0954 298.46 66.9576C298.183 66.6819 298.183 66.2339 298.46 65.9631L307.134 57.303C307.267 57.17 307.445 57.0962 307.632 57.0962H325.766C326.155 57.0962 326.471 57.4113 326.471 57.8002C326.471 58.1892 326.155 58.5043 325.766 58.5043H307.923L299.456 66.9576C299.318 67.0954 299.135 67.1644 298.958 67.1644Z" fill="black"/>
<path d="M174.11 257.903C175.343 261.723 173.104 264.82 169.099 264.82C165.095 264.82 160.849 261.723 159.616 257.903C158.378 254.082 160.622 250.985 164.626 250.985C168.631 250.985 172.877 254.082 174.11 257.903Z" fill="#737FF6"/>
<path d="M169.094 265.524C164.813 265.524 160.256 262.201 158.94 258.119C158.269 256.046 158.501 254.082 159.591 252.585C160.676 251.099 162.461 250.281 164.626 250.281C168.906 250.281 173.463 253.605 174.78 257.686C175.451 259.759 175.219 261.723 174.129 263.22C173.044 264.707 171.259 265.524 169.094 265.524ZM164.621 251.694C162.919 251.694 161.539 252.305 160.73 253.417C159.911 254.535 159.753 256.051 160.281 257.686C161.425 261.231 165.38 264.111 169.094 264.111C170.79 264.111 172.176 263.5 172.985 262.388C173.803 261.27 173.961 259.754 173.434 258.119C172.289 254.574 168.334 251.694 164.621 251.694Z" fill="black"/>
<path d="M320.4 242.345C320.159 242.345 319.922 242.222 319.789 241.995L314.714 233.33C314.517 232.996 314.63 232.562 314.966 232.365C315.301 232.168 315.735 232.282 315.932 232.616L321.007 241.281C321.204 241.616 321.091 242.05 320.755 242.246C320.642 242.31 320.519 242.345 320.4 242.345Z" fill="black"/>
<path d="M88.9021 195.214H25.6839C22.9657 195.214 20.7622 197.414 20.7622 200.127V244.417C20.7622 247.131 22.9657 249.331 25.6839 249.331H88.9021C91.6203 249.331 93.8238 247.131 93.8238 244.417V200.127C93.8238 197.414 91.6203 195.214 88.9021 195.214Z" fill="#4BB420"/>
<path d="M88.8963 250.035H25.6831C22.5811 250.035 20.0562 247.515 20.0562 244.418V200.128C20.0562 197.031 22.5811 194.51 25.6831 194.51H88.8963C91.9983 194.51 94.5232 197.031 94.5232 200.128V244.418C94.5232 247.515 91.9983 250.035 88.8963 250.035ZM25.6831 195.918C23.3603 195.918 21.4666 197.809 21.4666 200.128V244.418C21.4666 246.737 23.3603 248.627 25.6831 248.627H88.8963C91.2191 248.627 93.1128 246.737 93.1128 244.418V200.128C93.1128 197.809 91.2191 195.918 88.8963 195.918H25.6831Z" fill="black"/>
<path d="M57.9505 231.204C57.6842 231.204 57.4179 231.179 57.1614 231.135C54.0003 230.588 52.3038 226.906 50.8095 223.656C49.5618 220.944 48.3881 218.384 46.7804 218.354C45.5771 218.334 43.1606 219.688 39.9206 229.052C39.7923 229.422 39.3929 229.614 39.023 229.491C38.6531 229.363 38.4608 228.964 38.5841 228.595C41.3162 220.698 43.999 216.877 46.81 216.946C49.3005 216.995 50.6566 219.949 52.0917 223.071C53.5071 226.148 54.9718 229.328 57.3981 229.747C60.076 230.204 65.1407 227.383 74.136 211.314C74.3283 210.974 74.7574 210.851 75.0976 211.043C75.4379 211.235 75.5612 211.663 75.3689 212.003C68.149 224.902 62.4333 231.204 57.9505 231.204Z" fill="black"/>
<path d="M84.0149 242.306H29.9992C29.6096 242.306 29.2939 241.991 29.2939 241.602V203.289C29.2939 202.9 29.6096 202.584 29.9992 202.584C30.3888 202.584 30.7044 202.9 30.7044 203.289V240.898H84.0149C84.4045 240.898 84.7202 241.213 84.7202 241.602C84.7202 241.991 84.4045 242.306 84.0149 242.306Z" fill="black"/>
<path d="M77.2336 211.111C77.2336 212.16 76.3804 213.012 75.3201 213.012C74.2598 213.012 73.4165 212.16 73.4165 211.111C73.4165 210.063 74.2697 209.211 75.3201 209.211C76.3705 209.211 77.2336 210.063 77.2336 211.111Z" fill="white"/>
<path d="M75.3251 213.711C73.8851 213.711 72.7163 212.544 72.7163 211.107C72.7163 209.669 73.8851 208.502 75.3251 208.502C76.7652 208.502 77.9438 209.669 77.9438 211.107C77.9438 212.544 76.7701 213.711 75.3251 213.711ZM75.3251 209.915C74.6643 209.915 74.1317 210.452 74.1317 211.107C74.1317 211.762 74.6692 212.298 75.3251 212.298C75.981 212.298 76.5284 211.762 76.5284 211.107C76.5284 210.452 75.986 209.915 75.3251 209.915Z" fill="black"/>
<path d="M59.6667 230.5C59.6667 231.548 58.8135 232.4 57.7532 232.4C56.6929 232.4 55.8496 231.548 55.8496 230.5C55.8496 229.451 56.7028 228.599 57.7532 228.599C58.8036 228.599 59.6667 229.451 59.6667 230.5Z" fill="white"/>
<path d="M57.7538 233.104C56.3138 233.104 55.145 231.938 55.145 230.5C55.145 229.062 56.3138 227.896 57.7538 227.896C59.1939 227.896 60.3725 229.062 60.3725 230.5C60.3725 231.938 59.1988 233.104 57.7538 233.104ZM57.7538 229.308C57.093 229.308 56.5604 229.845 56.5604 230.5C56.5604 231.155 57.0979 231.691 57.7538 231.691C58.4097 231.691 58.9571 231.155 58.9571 230.5C58.9571 229.845 58.4147 229.308 57.7538 229.308Z" fill="black"/>
<path d="M41.1632 229.042C41.1632 230.091 40.3101 230.943 39.2498 230.943C38.1895 230.943 37.3462 230.091 37.3462 229.042C37.3462 227.994 38.1994 227.142 39.2498 227.142C40.3002 227.142 41.1632 227.994 41.1632 229.042Z" fill="white"/>
<path d="M39.2504 231.647C37.8104 231.647 36.6416 230.48 36.6416 229.042C36.6416 227.605 37.8104 226.438 39.2504 226.438C40.6904 226.438 41.8691 227.605 41.8691 229.042C41.8691 230.48 40.6954 231.647 39.2504 231.647ZM39.2504 227.851C38.5896 227.851 38.057 228.388 38.057 229.042C38.057 229.697 38.5945 230.234 39.2504 230.234C39.9063 230.234 40.4537 229.697 40.4537 229.042C40.4537 228.388 39.9112 227.851 39.2504 227.851Z" fill="black"/>
<path d="M48.9308 217.852C48.9308 218.9 48.0777 219.752 47.0174 219.752C45.9571 219.752 45.1138 218.9 45.1138 217.852C45.1138 216.803 45.9669 215.951 47.0174 215.951C48.0678 215.951 48.9308 216.803 48.9308 217.852Z" fill="white"/>
<path d="M47.0224 220.456C45.5824 220.456 44.4136 219.289 44.4136 217.851C44.4136 216.414 45.5824 215.247 47.0224 215.247C48.4624 215.247 49.6411 216.414 49.6411 217.851C49.6411 219.289 48.4673 220.456 47.0224 220.456ZM47.0224 216.66C46.3616 216.66 45.8289 217.197 45.8289 217.851C45.8289 218.506 46.3665 219.043 47.0224 219.043C47.6783 219.043 48.2257 218.506 48.2257 217.851C48.2257 217.197 47.6832 216.66 47.0224 216.66Z" fill="black"/>
<path d="M68.2774 203.288H54.5133C54.1237 203.288 53.8081 202.973 53.8081 202.584C53.8081 202.195 54.1237 201.88 54.5133 201.88H68.2774C68.667 201.88 68.9826 202.195 68.9826 202.584C68.9826 202.973 68.667 203.288 68.2774 203.288Z" fill="black"/>
<path d="M61.6297 207.335H54.5084C54.1188 207.335 53.8032 207.02 53.8032 206.631C53.8032 206.242 54.1188 205.927 54.5084 205.927H61.6297C62.0193 205.927 62.3349 206.242 62.3349 206.631C62.3349 207.02 62.0193 207.335 61.6297 207.335Z" fill="black"/>
<path d="M160.04 152.008C160.04 152.008 141.586 120.622 133.922 122.916C126.249 125.2 138.563 140.768 138.563 140.768L124.306 159.663C124.306 159.663 126.14 170.544 138.361 172.065" fill="white"/>
<path d="M138.361 172.769C138.331 172.769 138.302 172.769 138.272 172.764C125.677 171.194 123.63 159.895 123.61 159.782C123.581 159.59 123.625 159.393 123.744 159.24L137.675 140.778C136.063 138.661 129.435 129.543 130.924 124.841C131.333 123.546 132.275 122.675 133.72 122.241C141.69 119.854 158.733 148.389 160.652 151.653C160.849 151.988 160.735 152.421 160.4 152.618C160.065 152.815 159.631 152.702 159.434 152.367C154.379 143.771 139.988 121.843 134.125 123.595C133.138 123.891 132.532 124.437 132.27 125.269C131.082 129.021 136.807 137.42 139.115 140.339C139.313 140.59 139.318 140.945 139.125 141.201L125.06 159.841C125.445 161.559 127.866 170.052 138.45 171.371C138.834 171.42 139.11 171.77 139.061 172.159C139.017 172.513 138.711 172.774 138.361 172.774V172.769Z" fill="black"/>
<path d="M160.237 154.055C160.237 154.055 164.109 137.498 157.061 134.834C149.733 132.067 147.164 151.879 147.164 151.879C147.164 151.879 139.268 160.746 148.727 163.631" fill="white"/>
<path d="M148.722 164.34C148.653 164.34 148.584 164.33 148.515 164.31C145.773 163.473 144.106 162.06 143.558 160.111C142.552 156.541 145.748 152.465 146.488 151.584C146.744 149.747 148.643 137.395 153.471 134.505C154.679 133.781 155.966 133.672 157.308 134.18C164.848 137.025 161.085 153.518 160.923 154.217C160.834 154.597 160.454 154.833 160.074 154.744C159.695 154.656 159.458 154.277 159.547 153.897C159.586 153.74 163.196 137.911 156.81 135.499C155.877 135.149 155.024 135.218 154.196 135.716C149.669 138.423 147.874 151.84 147.859 151.977C147.839 152.115 147.78 152.248 147.686 152.356C147.652 152.396 144.017 156.541 144.919 159.737C145.329 161.194 146.68 162.282 148.929 162.966C149.304 163.079 149.511 163.473 149.397 163.847C149.304 164.153 149.023 164.345 148.722 164.345V164.34Z" fill="black"/>
<path d="M129.898 144.888C134.258 150.717 137.665 154.036 140.669 153.14C146.907 151.274 138.474 140.689 138.474 140.689C135.16 135.874 127.269 141.028 129.898 144.888Z" fill="white"/>
<path d="M139.662 153.987C136.521 153.987 133.217 150.501 129.331 145.307C129.326 145.297 129.316 145.292 129.311 145.282C127.989 143.343 128.734 140.851 131.116 139.227C133.557 137.563 137.063 137.395 139.056 140.285C139.613 140.979 144.702 147.532 143.484 151.422C143.114 152.599 142.237 153.406 140.871 153.81C140.471 153.928 140.067 153.987 139.662 153.987ZM130.475 144.475C135.175 150.757 138.168 153.145 140.466 152.456C141.364 152.185 141.911 151.707 142.138 150.994C142.986 148.3 139.381 142.954 137.926 141.117C136.363 138.848 133.72 139.153 131.92 140.384C130.49 141.359 129.488 142.998 130.48 144.47L130.475 144.475Z" fill="black"/>
<path d="M124.76 151.239C129.603 155.749 133.183 158.171 135.728 156.881C141.004 154.208 131.753 146.099 131.753 146.099C127.798 142.023 121.539 148.497 124.76 151.239Z" fill="white"/>
<path d="M134.243 157.935C131.54 157.935 128.246 155.454 124.291 151.766C123.344 150.954 122.979 149.807 123.255 148.537C123.665 146.646 125.43 144.859 127.452 144.283C129.228 143.776 130.939 144.248 132.26 145.612C132.862 146.139 138.499 151.195 138.03 154.902C137.932 155.685 137.508 156.768 136.048 157.512C135.481 157.802 134.879 157.935 134.248 157.935H134.243ZM128.808 145.499C128.453 145.499 128.123 145.558 127.837 145.642C126.313 146.075 124.937 147.449 124.631 148.837C124.464 149.605 124.661 150.235 125.218 150.708C125.228 150.713 125.233 150.723 125.243 150.728C130.446 155.577 133.488 157.231 135.407 156.256C136.147 155.882 136.546 155.38 136.63 154.73C136.95 152.214 132.882 148.034 131.289 146.636C130.441 145.765 129.563 145.504 128.813 145.504L128.808 145.499Z" fill="black"/>
<path d="M122.476 158.935C128.004 161.219 131.797 162.135 133.542 160.244C137.157 156.316 126.761 152.382 126.761 152.382C121.963 150.196 118.96 157.428 122.476 158.94V158.935Z" fill="white"/>
<path d="M130.761 161.967C128.552 161.967 125.652 161.012 122.205 159.584C122.205 159.584 122.2 159.584 122.195 159.584C121.09 159.111 120.4 158.151 120.262 156.886C120.069 155.143 120.967 153.179 122.446 152.11C123.798 151.136 125.43 151.003 127.052 151.741C127.738 151.997 134.139 154.513 134.928 157.831C135.096 158.54 135.081 159.614 134.06 160.726C133.256 161.598 132.147 161.977 130.761 161.977V161.967ZM122.752 158.284C128.66 160.726 131.728 161.169 133.025 159.766C133.523 159.225 133.69 158.713 133.557 158.151C133.034 155.951 128.295 153.715 126.515 153.041C125.016 152.362 123.931 152.78 123.28 153.253C122.21 154.026 121.529 155.493 121.667 156.733C121.726 157.255 121.958 157.949 122.752 158.289V158.284Z" fill="black"/>
<path d="M201.746 68.5668H181.68C181.29 68.5668 180.975 68.2517 180.975 67.8627C180.975 67.4738 181.29 67.1587 181.68 67.1587H201.746C202.136 67.1587 202.452 67.4738 202.452 67.8627C202.452 68.2517 202.136 68.5668 201.746 68.5668Z" fill="black"/>
<path d="M201.746 119.396H181.68C181.29 119.396 180.975 119.081 180.975 118.692C180.975 118.303 181.29 117.988 181.68 117.988H201.746C202.136 117.988 202.452 118.303 202.452 118.692C202.452 119.081 202.136 119.396 201.746 119.396Z" fill="black"/>
<path d="M112.933 119.396H92.8668C92.4772 119.396 92.1616 119.081 92.1616 118.692C92.1616 118.303 92.4772 117.988 92.8668 117.988H112.933C113.323 117.988 113.639 118.303 113.639 118.692C113.639 119.081 113.323 119.396 112.933 119.396Z" fill="black"/>
<path d="M61.7924 167.59H41.7257C41.3361 167.59 41.0205 167.275 41.0205 166.886C41.0205 166.497 41.3361 166.182 41.7257 166.182H61.7924C62.182 166.182 62.4976 166.497 62.4976 166.886C62.4976 167.275 62.182 167.59 61.7924 167.59Z" fill="black"/>
</svg>
