<svg width="123" height="123" viewBox="0 0 123 123" fill="none" xmlns="http://www.w3.org/2000/svg">
<rect x="1.44264" y="0.931902" width="120.215" height="120.215" rx="60.1077" fill="#F5F5F5" stroke="#EBEBEB" stroke-width="1.8638"/>
<g clip-path="url(#clip0_2269_1000)">
<path d="M51.107 61.4339L50.7646 61.1376L52.9659 58.6227C53.3667 57.7701 53.8033 56.9129 54.3002 56.0083C55.5212 53.7806 56.4555 52.4508 57.28 51.2771C58.0711 50.1508 58.7541 49.1761 59.5395 47.6586C61.1131 44.6145 62.0967 41.2424 62.4624 37.633C62.4705 37.5199 62.6871 34.7494 63.8754 34.0212C64.237 33.7996 64.6429 33.7815 65.0821 33.9647C65.4301 34.1094 68.7379 36.0499 69.1141 36.2692L68.8837 36.6582C67.4177 35.7988 65.1489 34.4826 64.9069 34.3808C64.6057 34.2564 64.3458 34.2655 64.1131 34.408C63.2895 34.9123 62.9686 36.9341 62.9145 37.6714C62.5425 41.3442 61.543 44.7728 59.9429 47.8666C59.1436 49.4113 58.419 50.4426 57.6518 51.5349C56.8344 52.6996 55.9078 54.0204 54.6986 56.2254C54.2008 57.1323 53.7642 57.9894 53.3638 58.8443C53.3547 58.8624 53.3431 58.8805 53.3291 58.8963L51.107 61.4339Z" fill="#1F1F1F"/>
<path d="M78.8138 47.1319C77.083 46.1617 74.4407 44.6894 74.2558 44.6103C73.9258 44.504 73.4863 44.5876 73.0292 44.8522L70.8116 46.4037L70.5508 46.0328L72.7854 44.47C73.3801 44.1285 73.9349 44.0336 74.4066 44.1851C74.5682 44.2371 77.698 45.9876 79.0363 46.7361L78.8138 47.1319Z" fill="#1F1F1F"/>
<path d="M47.0452 85.7876C46.5379 85.5071 45.7863 85.093 45.078 84.702C44.1575 84.1954 43.2881 83.7159 43.1665 83.6458C42.8178 83.4468 42.626 83.0351 42.626 82.4878V66.1931C42.626 65.1143 43.3919 63.7958 44.3332 63.2553L48.72 60.7314C49.1974 60.4577 49.652 60.4148 50.0003 60.6138C50.2951 60.7811 53.95 62.7962 53.987 62.8166L53.8772 63.0133C53.8404 62.9952 50.1839 60.9779 49.8877 60.8106C49.6125 60.6522 49.2385 60.6952 48.8335 60.9282L44.4467 63.452C43.5678 63.9564 42.853 65.1867 42.853 66.1931V82.4878C42.853 82.9513 43.0044 83.2929 43.2793 83.4491C43.3994 83.5169 44.2683 83.9964 45.1881 84.505C45.8961 84.894 46.6479 85.3104 47.1557 85.5905L47.0452 85.7876Z" fill="#EC2353"/>
<path d="M54.9949 79.6446L54.834 79.2215C54.8757 79.2059 59.0087 77.6475 60.2232 77.2291C62.2798 76.5192 64.2649 75.6146 66.1235 74.54L66.3512 74.9314C64.4676 76.0216 62.4557 76.9376 60.3719 77.6545C59.1631 78.0729 55.0365 79.6286 54.9949 79.6446Z" fill="#1F1F1F"/>
<path d="M54.4994 64.7145L54.1323 64.45L57.118 60.361C58.542 57.5069 60.0009 55.5687 61.2884 53.859C62.2872 52.5314 63.1498 51.3848 63.8488 50.0346C65.4223 46.9906 66.4057 43.6185 66.7716 40.009C66.7954 39.6811 67.0497 36.7524 68.4339 36.2797C69.079 36.0603 69.8286 36.4154 70.6608 37.3359C72.1186 38.9484 71.4469 43.3471 71.0024 46.2578C70.7818 47.7052 70.1099 50.2721 70.0815 50.3829L69.642 50.2675C69.649 50.2404 70.3364 47.6125 70.5539 46.19C70.9854 43.3652 71.6375 39.0931 70.3232 37.6389C69.6241 36.8654 69.0373 36.5533 68.581 36.7071C67.6467 37.026 67.2846 39.2265 67.2238 40.0475C66.8517 43.7203 65.8523 47.1466 64.2521 50.2404C63.536 51.6268 62.6207 52.8413 61.6514 54.1304C60.3732 55.8266 58.9243 57.7512 57.5162 60.5781C57.5107 60.5894 57.5041 60.6008 57.4964 60.612L54.4994 64.7145Z" fill="#1F1F1F"/>
<path d="M67.4624 57.091C67.4377 57.082 66.8532 56.8739 66.2657 56.3967C65.9472 56.1366 65.7788 55.7499 65.7788 55.2749C65.7788 53.8185 67.4189 51.6293 68.7618 50.8558L76.4073 46.457L76.5209 46.6538L68.8753 51.0526C67.5837 51.7944 66.0058 53.8886 66.0058 55.2749C66.0058 55.6843 66.1415 56.0032 66.4094 56.2203C66.9646 56.6726 67.5322 56.8761 67.5378 56.8784L67.4624 57.091Z" fill="#1F1F1F"/>
<path d="M67.5081 69.6007C67.4768 69.5917 66.7372 69.368 66.1672 68.798C65.913 68.5422 65.7788 68.1849 65.7788 67.7645C65.7788 66.3102 67.4189 64.1187 68.7618 63.3452L76.4073 58.9487C77.0782 58.562 77.7335 58.5145 78.2037 58.8175C78.5828 59.0595 79.05 59.3038 79.0547 59.306L78.9491 59.5073C78.9444 59.505 78.4685 59.2563 78.081 59.0075C77.6782 58.7474 77.1245 58.7972 76.5209 59.1432L68.8753 63.542C67.5837 64.286 66.0058 66.3803 66.0058 67.7645C66.0058 68.1285 66.1143 68.4223 66.3281 68.6374C66.8577 69.169 67.5653 69.3813 67.5723 69.3837L67.5081 69.6007Z" fill="#1F1F1F"/>
<path d="M67.469 63.3331C67.4456 63.3241 66.8925 63.1115 66.3014 62.6637C65.9593 62.4037 65.7788 62.0056 65.7788 61.5149C65.7788 60.0584 67.4189 57.8669 68.7618 57.0957L77.2016 52.2401C77.8303 51.8782 78.433 51.8127 78.8982 52.0501C78.9424 52.075 79.6429 52.4685 79.7226 52.5137L79.611 52.7105C79.2997 52.5341 78.8248 52.2672 78.7939 52.2514C78.3994 52.0501 77.8749 52.1134 77.3152 52.4368L68.8753 57.2902C67.5837 58.0343 66.0058 60.1285 66.0058 61.5149C66.0058 61.94 66.1515 62.2657 66.4389 62.4828C67.0025 62.9103 67.5449 63.1206 67.5501 63.1228L67.469 63.3331Z" fill="#1F1F1F"/>
<path d="M67.4354 75.4981C67.4046 75.4891 66.67 75.254 66.1361 74.7248C65.8989 74.4894 65.7788 74.1752 65.7788 73.7885C65.7788 72.348 67.4466 70.3461 68.5709 69.6993L75.0892 65.9498C75.6853 65.606 76.2531 65.5517 76.6875 65.7937C77.0756 66.0108 77.4989 66.2642 77.4989 66.2642L77.3826 66.4564C77.3826 66.4564 76.9619 66.2053 76.5765 65.9905C76.2149 65.7892 75.7266 65.8435 75.2027 66.1443L68.6844 69.894C67.5035 70.5725 66.0058 72.5446 66.0058 73.7885C66.0058 74.1141 66.1034 74.3742 66.2961 74.5642C66.7901 75.0527 67.497 75.2811 67.504 75.2834L67.4354 75.4981Z" fill="#1F1F1F"/>
<path d="M78.3116 46.9439C78.0354 46.9439 77.7227 47.0412 77.3936 47.2312L69.7479 51.6277C68.5081 52.3401 66.935 54.4275 66.935 55.7528C66.935 56.1938 67.1029 56.515 67.4339 56.705C67.9571 57.0058 68.7961 56.9288 69.5209 56.5127L77.1663 52.1139C78.3742 51.4196 79.3566 49.7302 79.3566 48.3461C79.3566 47.7287 79.1585 47.2742 78.7992 47.0684C78.6561 46.9847 78.4915 46.9439 78.3116 46.9439ZM68.1975 57.3359C67.8289 57.3359 67.4857 57.2568 67.2069 57.0962C66.7388 56.8271 66.481 56.3499 66.481 55.7528C66.481 54.2195 68.1442 52.028 69.5209 51.2364L77.1663 46.8377C77.8567 46.4419 78.5173 46.3831 79.0261 46.6771C79.5322 46.9666 79.8107 47.5614 79.8107 48.3461C79.8107 49.8727 78.7261 51.7385 77.3936 52.5052L69.7479 56.904C69.251 57.1889 68.701 57.3359 68.1975 57.3359Z" fill="#1F1F1F"/>
<path d="M78.3116 59.4407C78.0354 59.4407 77.7227 59.5357 77.3936 59.7257L69.7479 64.1244C68.5081 64.8368 66.935 66.922 66.935 68.2497C66.935 68.6904 67.1029 69.0093 67.4341 69.2017C67.9578 69.5025 68.7964 69.4234 69.5209 69.0073L77.1663 64.6084C78.3742 63.9141 79.3566 62.2247 79.3566 60.8429C79.3566 60.2232 79.1585 59.7709 78.7992 59.5628C78.6561 59.4814 78.4915 59.4407 78.3116 59.4407ZM68.1975 69.8328C67.8291 69.8328 67.4857 69.7536 67.2071 69.593C66.7388 69.3239 66.481 68.8467 66.481 68.2497C66.481 66.7162 68.1442 64.5225 69.5209 63.7309L77.1663 59.3344C77.8567 58.9364 78.5173 58.8798 79.0261 59.1716C79.5322 59.4633 79.8107 60.0558 79.8107 60.8429C79.8107 62.3694 78.7261 64.2352 77.3936 65.0019L69.7479 69.3983C69.251 69.6855 68.701 69.8328 68.1975 69.8328Z" fill="#1F1F1F"/>
<path d="M79.1059 52.7473C78.8297 52.7473 78.517 52.8423 78.1879 53.0323L69.7479 57.8879C68.5081 58.6003 66.935 60.6855 66.935 62.013C66.935 62.454 67.1029 62.7752 67.4339 62.9652C67.9571 63.266 68.7961 63.1891 69.5209 62.7707L77.9606 57.9173C79.1682 57.223 80.1509 55.5314 80.1509 54.1495C80.1509 53.5321 79.9528 53.0775 79.5932 52.8695C79.4504 52.7881 79.2859 52.7473 79.1059 52.7473ZM68.1975 63.5961C67.8289 63.5961 67.4857 63.517 67.2069 63.3564C66.7388 63.0873 66.481 62.6101 66.481 62.013C66.481 60.4797 68.1442 58.2882 69.5209 57.4967L77.9606 52.641C78.6514 52.243 79.3113 52.1865 79.8204 52.4782C80.3262 52.77 80.6047 53.3625 80.6047 54.1495C80.6047 55.6761 79.5205 57.5419 78.1879 58.3086L69.7479 63.1642C69.251 63.4492 68.7008 63.5961 68.1975 63.5961Z" fill="#1F1F1F"/>
<path d="M76.9076 66.4815C76.6579 66.4815 76.3743 66.5697 76.0754 66.7416L69.557 70.4914C68.4011 71.1562 66.935 73.0762 66.935 74.2884C66.935 74.673 67.0832 74.9535 67.3749 75.1208C67.857 75.399 68.6611 75.3222 69.33 74.9375L75.8483 71.188C76.9505 70.5545 77.8474 69.0122 77.8474 67.7503C77.8474 67.1893 77.6687 66.7778 77.3453 66.5924C77.2169 66.5177 77.0695 66.4815 76.9076 66.4815ZM68.0874 75.7382C67.7376 75.7382 67.4123 75.6634 67.1479 75.5122C66.7177 75.2654 66.481 74.829 66.481 74.2884C66.481 72.8094 68.1828 70.7582 69.33 70.0977L75.8483 66.3504C76.4876 65.9817 77.1 65.9297 77.5722 66.2011C78.0421 66.4702 78.3012 67.022 78.3012 67.7503C78.3012 69.1547 77.3027 70.8734 76.0754 71.5793L69.557 75.3289C69.0862 75.6003 68.5644 75.7382 68.0874 75.7382Z" fill="#1F1F1F"/>
<path d="M52.7562 83.107L48.3524 85.6401C47.4372 86.167 46.6953 85.7439 46.6953 84.6971V68.3365C46.6953 67.2897 47.4372 66.0118 48.3524 65.4848L52.7562 62.9518C53.6715 62.4272 54.4133 62.8501 54.4133 63.8972V80.2574C54.4133 81.3045 53.6715 82.5801 52.7562 83.107Z" fill="#EC2353"/>
<path d="M53.4716 62.8305C53.2643 62.8305 53.0308 62.9029 52.7863 63.0431L48.3823 65.576C47.5 66.0827 46.7822 67.3173 46.7822 68.3284V84.6887C46.7822 85.1502 46.9333 85.4938 47.208 85.6497C47.4845 85.8103 47.8618 85.7676 48.2688 85.5345L52.6728 83.0014C53.5553 82.4925 54.2731 81.2577 54.2731 80.2493V63.8889C54.2731 63.4253 54.1219 63.0838 53.847 62.9255C53.7365 62.8622 53.6101 62.8305 53.4716 62.8305ZM47.5828 85.9733C47.4053 85.9733 47.2405 85.9302 47.0945 85.8467C46.7465 85.6477 46.5552 85.236 46.5552 84.6887V68.3284C46.5552 67.2452 47.3238 65.9243 48.2688 65.3793L52.6728 62.8463C53.1531 62.5704 53.6107 62.5297 53.9606 62.7287C54.3085 62.93 54.5001 63.3416 54.5001 63.8889V80.2493C54.5001 81.3302 53.7313 82.6531 52.7863 83.1961L48.3823 85.7288C48.1024 85.8918 47.8302 85.9733 47.5828 85.9733Z" fill="#EC2353"/>
<path d="M52.1722 68.2328C52.1722 69.126 51.5114 70.2139 50.6967 70.6617C49.8818 71.1095 49.2212 70.7499 49.2212 69.8566C49.2212 68.9631 49.8818 67.8775 50.6967 67.4274C51.5114 66.9796 52.1722 67.3392 52.1722 68.2328Z" fill="#1F1F1F"/>
</g>
<defs>
<clipPath id="clip0_2269_1000">
<rect width="38.208" height="52.4249" fill="white" transform="translate(42.4463 33.5483)"/>
</clipPath>
</defs>
</svg>
