<svg width="121" height="121" viewBox="0 0 121 121" fill="none" xmlns="http://www.w3.org/2000/svg">
<g clip-path="url(#clip0_2582_947)">
<path d="M54.8282 23.6328C61.0932 23.6328 66.1719 18.5541 66.1719 12.2891C66.1719 6.02408 61.0932 0.945312 54.8282 0.945312C48.5632 0.945312 43.4844 6.02408 43.4844 12.2891C43.4844 18.5541 48.5632 23.6328 54.8282 23.6328Z" stroke="#22130C" stroke-width="3" stroke-miterlimit="10" stroke-linecap="round" stroke-linejoin="round"/>
<path d="M62.7688 5.67197L63.525 4.91572C61.4454 2.45791 58.2313 0.756348 54.8282 0.756348C48.5891 0.756348 43.4844 5.86104 43.4844 12.1001H44.6188C51.236 12.2892 57.6641 10.0204 62.7688 5.67197Z" stroke="#22130C" stroke-width="3" stroke-miterlimit="10" stroke-linecap="round" stroke-linejoin="round"/>
<path d="M54.8282 23.6326C52.7484 23.6326 50.8578 23.0654 49.1562 22.1201V25.5232L54.8282 32.1404L60.5 25.5232V22.1201C58.7984 23.0654 56.9078 23.6326 54.8282 23.6326Z" stroke="#22130C" stroke-width="3" stroke-miterlimit="10" stroke-linecap="round" stroke-linejoin="round"/>
<path d="M77.5156 45.1865C75.8141 45.1865 74.1125 44.2412 73.3563 42.5397L67.6844 31.1959C66.7391 29.3053 65.2266 27.7928 63.525 27.0365L60.5 25.524L54.8281 32.1412L49.1563 25.524L43.4845 28.3599H39.325C37.6235 28.3599 35.922 27.4147 35.1657 25.7131L27.9813 11.5334L21.175 14.9365L29.1156 30.6287C30.6281 33.8428 34.0313 35.9224 37.6235 35.9224H43.4845V57.6647H66.1719V45.1865L67.3063 47.4553C68.8188 50.6694 72.2219 52.749 75.8141 52.749H87.3467V45.1865H77.5156Z" stroke="#22130C" stroke-width="3" stroke-miterlimit="10" stroke-linecap="round" stroke-linejoin="round"/>
<path d="M64.2813 103.039H60.311C59.3656 103.039 58.6094 102.283 58.4204 101.337L54.8282 67.1172L51.236 101.337C51.047 102.283 50.2907 103.039 49.3454 103.039H45.375C44.2406 103.039 43.4844 102.283 43.4844 101.149V57.6641H66.1719V101.149C66.1719 102.283 65.4157 103.039 64.2813 103.039Z" stroke="#22130C" stroke-width="3" stroke-miterlimit="10" stroke-linecap="round" stroke-linejoin="round"/>
<path d="M57.6641 46.3204L54.8282 50.1016L51.9922 46.3204L52.9375 29.3047H56.7188L57.6641 46.3204Z" stroke="#22130C" stroke-width="3" stroke-miterlimit="10" stroke-linecap="round" stroke-linejoin="round"/>
<path d="M91.1284 45.186C93.208 45.186 94.9093 46.8876 94.9093 48.9673C94.9093 51.047 93.208 52.7485 91.1284 52.7485" stroke="#22130C" stroke-width="3" stroke-miterlimit="10" stroke-linecap="round" stroke-linejoin="round"/>
<path d="M19.4734 11.5329C18.5281 9.64224 19.2843 7.37352 21.175 6.42821C23.0656 5.4829 25.3343 6.23915 26.2796 8.12974" stroke="#22130C" stroke-width="3" stroke-miterlimit="10" stroke-linecap="round" stroke-linejoin="round"/>
<path d="M91.1284 41.4047V20.6079" stroke="#22130C" stroke-width="3" stroke-miterlimit="10" stroke-linecap="round" stroke-linejoin="round"/>
<path d="M91.1284 31.9517V22.4985L102.472 27.2251L91.1284 31.9517Z" stroke="#22130C" stroke-width="3" stroke-miterlimit="10" stroke-linecap="round" stroke-linejoin="round"/>
<path d="M66.1718 89.4265V101.149C66.1718 102.283 65.4156 103.039 64.2812 103.039H60.3109C59.3655 103.039 58.6093 102.283 58.4203 101.338L55.3953 72.7893C55.0171 72.6002 54.639 72.6002 54.2609 72.7893L51.2359 101.338C51.0469 102.283 50.2906 103.039 49.3453 103.039H45.375C44.2405 103.039 43.4843 102.283 43.4843 101.149V89.2377L24.5781 120.055H85.0783L66.1718 89.4265Z" stroke="#22130C" stroke-width="3" stroke-miterlimit="10" stroke-linecap="round" stroke-linejoin="round"/>
<path d="M29.4938 104.741L22.3094 93.9639C21.5532 92.8297 19.8516 92.8297 19.0953 93.9639L1.89062 120.055H20.7968" stroke="#22130C" stroke-width="3" stroke-miterlimit="10" stroke-linecap="round" stroke-linejoin="round"/>
<path d="M88.8591 120.055H107.766L90.3716 93.9639C89.6158 92.8297 87.9137 92.8297 87.1579 93.9639L79.9734 104.741" stroke="#22130C" stroke-width="3" stroke-miterlimit="10" stroke-linecap="round" stroke-linejoin="round"/>
<path d="M85.0783 120.055L77.3265 107.576L70.3312 114.383L62.5796 106.821L54.8281 114.383L47.0765 106.821L39.325 114.383L32.3296 107.576L24.5781 120.055H85.0783Z" stroke="#22130C" stroke-width="3" stroke-miterlimit="10" stroke-linecap="round" stroke-linejoin="round"/>
</g>
<defs>
<clipPath id="clip0_2582_947">
<rect width="121" height="121" fill="white"/>
</clipPath>
</defs>
</svg>
