<svg width="45" height="38" viewBox="0 0 45 38" fill="none" xmlns="http://www.w3.org/2000/svg">
<path d="M31.7143 37V32.862C31.7143 30.6671 30.9053 28.5622 29.4653 27.0101C28.0253 25.4581 26.0722 24.5862 24.0357 24.5862H8.67857C6.64209 24.5862 4.68901 25.4581 3.249 27.0101C1.80899 28.5622 1 30.6671 1 32.862V37" stroke="black" stroke-width="1.7" stroke-linecap="round" stroke-linejoin="round"/>
<path d="M16.3571 17.1379C20.7674 17.1379 24.3428 13.5253 24.3428 9.06897C24.3428 4.6126 20.7674 1 16.3571 1C11.9467 1 8.37134 4.6126 8.37134 9.06897C8.37134 13.5253 11.9467 17.1379 16.3571 17.1379Z" stroke="black" stroke-width="1.7" stroke-linecap="round" stroke-linejoin="round"/>
<path d="M44 37V32.7704C43.9987 30.8961 43.3947 29.0754 42.2828 27.5941C41.171 26.1128 39.6143 25.0548 37.8572 24.5862" stroke="black" stroke-width="1.7" stroke-linecap="round" stroke-linejoin="round"/>
<path d="M30.4856 1C32.2428 1.45874 33.8003 2.50073 34.9125 3.9617C36.0247 5.42267 36.6285 7.21952 36.6285 9.06897C36.6285 10.9184 36.0247 12.7153 34.9125 14.1762C33.8003 15.6372 32.2428 16.6792 30.4856 17.1379" stroke="black" stroke-width="1.7" stroke-linecap="round" stroke-linejoin="round"/>
</svg>
